<svg id="图层_1" data-name="图层 1" xmlns="http://www.w3.org/2000/svg" viewBox="0 0 300 300"><defs><style>.cls-1{fill:#008b8b;}</style></defs><title>icon</title><path class="cls-1" d="M262.5,124.84V114.57A5,5,0,0,0,261,111L187.5,37.5v.71h0V157.85a5,5,0,0,1-8.54,3.54l-15-15a5,5,0,0,1-1.46-3.54V0h-25V107.85a5,5,0,0,1-8.54,3.54l-15-15a5,5,0,0,1-1.46-3.54V49.57A5,5,0,0,0,104,46L89,61a5,5,0,0,0-1.46,3.53V189.23A5,5,0,0,1,79,192.76l-15-15a5,5,0,0,1-1.46-3.53V99.57A5,5,0,0,0,54,96L39,111a5,5,0,0,0-1.46,3.53V187.5l50,50,25,25,.12.12V244.94l-.12-.11V142.35a5,5,0,0,1,8.54-3.54l16.46,16.47,25,25L186,203.81a5,5,0,0,1,1.46,3.54V300h25V242.35a5,5,0,0,1,8.54-3.54l16.46,16.47,25,25h0V124.84ZM229,211.39l-15-15a5,5,0,0,1-1.46-3.54V110.64A5,5,0,0,1,221,107.1l15,15a5,5,0,0,1,1.46,3.54v82.21A5,5,0,0,1,229,211.39Z"/></svg>