<?xml version="1.0" encoding="utf-8"?>
<!-- Generator: Adobe Illustrator 23.1.0, SVG Export Plug-In . SVG Version: 6.00 Build 0)  -->
<svg version="1.1" id="图层_1" xmlns="http://www.w3.org/2000/svg" xmlns:xlink="http://www.w3.org/1999/xlink" x="0px" y="0px"
	 viewBox="0 0 264.7 238.5" style="enable-background:new 0 0 264.7 238.5;" xml:space="preserve">
<title>icon</title>
<path d="M221.8,99.2v-9.8l-59.6-59.6v0.6l0,0v9.3v18.8V135l-19.9-19.9V0h-19.9v95.3l-19.9-19.9V29.8L82.7,49.7v110.4l-19.9-19.9
	V69.5L42.9,89.4V135v13.6v0.5l39.7,39.7l19.9,19.9l0.1,0.1v-14l-0.1-0.1v-91.1l19.9,19.9l19.9,19.9l19.9,19.9v75.3H182V183
	l19.9,19.9l19.9,19.9l0,0v-28.1L221.8,99.2L221.8,99.2z M201.9,174.8L182,154.9V78.4l19.9,19.9V174.8z"/>
</svg>
