<svg id="图层_1" data-name="图层 1" xmlns="http://www.w3.org/2000/svg" viewBox="0 0 264.72 238.48"><defs><style>.cls-1{fill:#005e63;}.cls-2{fill:#008b8b;}</style></defs><title>icon</title><path class="cls-1" d="M121,168.45l-.75-.06q-8.79-55.86-17.57-111.71H76.38L59.6,167.86l-.74-.07Q47.34,104.34,35.78,40.62l-14.32,1.5q12.25,80.32,24.24,158.8H77.88c4-30.34,8-59.95,11.93-89.56l.7,0q5.24,45.06,10.5,90.21h49.45q7.42-77.88,14.84-155.69H133.66C129.42,87,125.21,127.71,121,168.45Z" transform="translate(-17.87 -37.03)"/><path class="cls-2" d="M117.42,164.87l-.75-.06Q107.88,109,99.1,53.1H72.8L56,164.28l-.74-.07L32.19,37,17.87,38.54q12.27,80.31,24.25,158.8H74.3c4-30.34,8-60,11.93-89.56l.69,0q5.25,45,10.51,90.21h49.45q7.43-77.88,14.84-155.69H130.08C125.84,83.38,121.63,124.12,117.42,164.87Z" transform="translate(-17.87 -37.03)"/><path class="cls-1" d="M272.51,82.78c-3.38-2.09-6.18-3.28-10.2-2.92-18.63,1.69-37.28,3-55.93,4.5L173.83,87V275.52H198V201.89h79.68c.2-2.57.36-4.16.43-5.74,1.35-30.39,2.13-60.83,4.36-91.15C283.2,94.86,281.15,88.12,272.51,82.78Zm-17,86.78H198.23V109.27l62.56-4.08C259,126.93,257.23,148.21,255.46,169.56Z" transform="translate(-17.87 -37.03)"/><path class="cls-2" d="M268.34,78.62c-3.38-2.09-6.18-3.29-10.2-2.92-18.62,1.68-37.28,3-55.92,4.5Q186,81.47,169.67,82.8V271.35h24.16V197.73h79.68c.19-2.58.35-4.16.42-5.75,1.35-30.39,2.13-60.82,4.36-91.15C279,90.69,277,84,268.34,78.62Zm-17,86.77H194.06V105.1L256.62,101C254.82,122.76,253.06,144.05,251.29,165.39Z" transform="translate(-17.87 -37.03)"/></svg>